# xmcd
#
# Track frame offsets: 
#        150
#        9919
#        27413
#        55117
#        78064
#        109124
#        125738
#        150627
#        171771
#        205861
#        227518
#        258503
#        284495
#
# Disc length: 4108 seconds
#
# Revision: 0
# Processed by: cddbd v1.5.2PL0 Copyright (c) Steve Scherf et al.
# Submitted via: ExactAudioCopy v1.3
#
DISCID=a3100a0d
DTITLE=Otis Grand, Debbie Davies, Anson Funderburgh - Grand Union
DYEAR=1998
DGENRE=Blues
TTITLE0=Guitars On Fire
TTITLE1=There Was A Time
TTITLE2=Holding You Up For Love
TTITLE3=The Things I'd Do For You
TTITLE4=Bone Tones
TTITLE5=I Got Eyes
TTITLE6=Don't Talk About Me
TTITLE7=Westside Bossman
TTITLE8=TC Blues
TTITLE9=Rockin' Daddy
TTITLE10=Country Girl
TTITLE11=A Little Too Late
TTITLE12=The Big Prayer
EXTD=
EXTT0=
EXTT1=
EXTT2=
EXTT3=
EXTT4=
EXTT5=
EXTT6=
EXTT7=
EXTT8=
EXTT9=
EXTT10=
EXTT11=
EXTT12=
PLAYORDER=
